<svg width="25" height="24" viewBox="0 0 25 24" fill="none" xmlns="http://www.w3.org/2000/svg">
<path fill-rule="evenodd" clip-rule="evenodd" d="M13.5272 9.67129C13.4306 10.251 13.5939 10.844 13.9737 11.2925C14.3535 11.7411 14.9114 11.9998 15.4991 12.0001L19.6582 12.0019C20.3087 12.0021 20.7857 12.6135 20.6279 13.2445L19.128 19.2427C19.0166 19.6878 18.6167 20.0001 18.1578 20.0001H8.5V12.7016L11.4043 9.07122C12.1136 8.18465 12.5 7.0831 12.5 5.94774V4.79268C13.4985 5.26025 14.082 6.34285 13.8969 7.45341L13.5272 9.67129ZM7.3 11.0001L9.84261 7.82183C10.2682 7.28989 10.5 6.62896 10.5 5.94774V4.49035C10.5 3.26524 11.7002 2.40016 12.8625 2.78758C14.9572 3.48582 16.2326 5.60421 15.8696 7.7822L15.5 10.0001L19.6591 10.0019C21.6104 10.0027 23.0416 11.8367 22.5682 13.7297L21.0682 19.7279C20.7343 21.0633 19.5344 22.0001 18.1578 22.0001H8.5H5.5C3.84315 22.0001 2.5 20.6569 2.5 19.0001V14.0001C2.5 12.3432 3.84315 11.0001 5.5 11.0001H7.3ZM6.5 13.0001H5.5C4.94772 13.0001 4.5 13.4478 4.5 14.0001V19.0001C4.5 19.5524 4.94772 20.0001 5.5 20.0001H6.5V13.0001Z" fill="white"/>
</svg>
